# xmcd CD database file
#
# Track frame offsets:
#	150
#	13877
#	34353
#	55692
#	78455
#	98545
#
# Disc length: 1537 seconds
#
# Revision: 0
# Processed by: cddbd v1.5.2PL0 Copyright (c) Steve Scherf et al.
# Submitted via: CDex 1.70beta2
#
DISCID=4105ff06
DTITLE=Melisa Devost - Click
DYEAR=2002
DGENRE=Blues
TTITLE0=Stainless
TTITLE1=Progress
TTITLE2=Anchor
TTITLE3=We Are Here
TTITLE4=Praise
TTITLE5=Bring It
EXTD=YEAR: 2002
EXTT0=
EXTT1=
EXTT2=
EXTT3=
EXTT4=
EXTT5=
PLAYORDER=
